<?xml version="1.0" encoding="utf-8"?><svg version="1.1" id="Layer_1" xmlns="http://www.w3.org/2000/svg" xmlns:xlink="http://www.w3.org/1999/xlink" x="0px" y="0px" viewBox="0 0 119.39 122.88" style="enable-background:new 0 0 119.39 122.88" xml:space="preserve"><style type="text/css"><![CDATA[
	.st0{fill:none;stroke:#FF4141;stroke-width:12.8586;stroke-linecap:round;stroke-linejoin:round;stroke-miterlimit:2.6131;}
	.st1{fill:#262626;}
	.st2{fill:#FFFFFF;}
	.st3{fill-rule:evenodd;clip-rule:evenodd;fill:#FF4141;}
]]></style><g><path class="st3" d="M61.18,16.12C68.69,8.29,73.95,1.51,85.53,0.19c21.74-2.5,41.73,19.76,30.75,41.66 c-3.12,6.24-9.48,13.66-16.52,20.94c-7.72,7.99-16.27,15.83-22.25,21.76l-16.32,16.19L47.7,87.76c-3.11-2.99-6.59-6.13-10.19-9.42 l9.98-10c2.1-2.1,2.58-4.28,2.02-5.94c-0.2-0.6-0.54-1.14-0.95-1.56c-0.41-0.42-0.95-0.75-1.56-0.95 c-1.63-0.54-3.81-0.04-5.97,2.11L30.86,72.18C17.61,59.59,4.73,44.97,4.13,28.09C3.52,11.02,16.99,0.08,32.49,0.28 C46.34,0.46,52.16,7.35,61.18,16.12L61.18,16.12L61.18,16.12L61.18,16.12z"/><path class="st0" d="M23.52,31.45c2.93,0,5.18,0.85,6.75,2.54c1.57,1.69,2.35,4.13,2.35,7.32c0,3.78-0.91,6.68-2.74,8.71 c-1.83,2.03-4.44,3.05-7.84,3.05c-2.13,0-4.63-0.1-7.5-0.3l0.31-6.22l-0.31-14.97L23.52,31.45L23.52,31.45z M23.21,48.19 c0.96,0,1.7-0.41,2.2-1.23c0.5-0.82,0.75-2.17,0.75-4.04c0-1.59-0.1-2.85-0.31-3.77c-0.21-0.92-0.53-1.58-0.98-1.98 c-0.45-0.4-1.08-0.61-1.88-0.61c-0.78,0-1.55,0.04-2.31,0.13l-0.22,9.2l0.06,2.03C21.76,48.1,22.66,48.19,23.21,48.19L23.21,48.19z M41.36,36.92c2.3,0,4.03,0.65,5.2,1.97c1.17,1.31,1.75,3.24,1.75,5.8c0,2.79-0.63,4.91-1.89,6.34c-1.26,1.43-3.12,2.15-5.58,2.15 c-2.3,0-4.03-0.65-5.2-1.95c-1.17-1.3-1.75-3.22-1.75-5.75c0-2.82,0.63-4.95,1.89-6.39C37.04,37.64,38.9,36.92,41.36,36.92 L41.36,36.92z M40.93,41.21c-0.41,0-0.72,0.08-0.92,0.25c-0.21,0.16-0.34,0.46-0.42,0.9c-0.07,0.44-0.11,1.1-0.11,2 c0,1.33,0.05,2.32,0.14,2.96c0.09,0.64,0.26,1.09,0.51,1.34c0.25,0.25,0.63,0.38,1.14,0.38c0.41,0,0.71-0.08,0.91-0.25 c0.19-0.17,0.33-0.47,0.4-0.92c0.07-0.45,0.11-1.12,0.11-2.01c0-1.31-0.05-2.29-0.14-2.93c-0.09-0.64-0.26-1.09-0.51-1.34 C41.79,41.34,41.42,41.21,40.93,41.21L40.93,41.21z M58.93,52.77l0.31-8.65c0-1.33-0.48-2-1.45-2c-0.47,0-0.95,0.15-1.44,0.46v3.31 l0.25,6.88h-6l0.28-6.22l-0.21-8.88l5.69-0.43v2.29h0.21c1.07-1.14,2.27-1.94,3.6-2.42c1.54,0,2.71,0.37,3.52,1.11 c0.81,0.74,1.19,1.81,1.15,3.21l-0.12,4.45l0.21,6.88H58.93L58.93,52.77z M74.65,36.92c1.89,0,3.34,0.41,4.37,1.23 c1.02,0.82,1.54,1.99,1.54,3.52c0,0.44-0.04,1.59-0.12,3.47c-0.08,1.66-0.12,2.59-0.12,2.78c0,0.24,0.04,0.42,0.11,0.52 s0.18,0.16,0.32,0.16c0.14,0,0.32-0.03,0.52-0.1l0.37,0.33l-0.52,3.28c-0.76,0.57-1.71,0.89-2.86,0.98 c-0.59-0.04-1.12-0.26-1.58-0.66c-0.46-0.39-0.81-0.95-1.06-1.67h-0.21c-0.9,1.11-1.93,1.9-3.08,2.36 c-1.56-0.02-2.8-0.49-3.74-1.39c-0.93-0.91-1.4-2.15-1.4-3.72c0-2.42,1.18-3.81,3.54-4.16l4.37-0.62v-0.39 c0-0.57-0.11-0.97-0.32-1.21c-0.22-0.24-0.59-0.36-1.12-0.36c-1.15,0-2.63,0.52-4.46,1.57l-0.37-0.26l-0.65-4.03 c0.94-0.52,1.98-0.93,3.12-1.21C72.42,37.06,73.54,36.92,74.65,36.92L74.65,36.92z M73.33,46.29c-0.29,0.04-0.5,0.16-0.63,0.34 c-0.13,0.19-0.2,0.46-0.2,0.83c0,0.87,0.38,1.31,1.14,1.31c0.49,0,0.97-0.18,1.45-0.52v-2.23L73.33,46.29L73.33,46.29z M91.42,48.12c0.53,0,1.15-0.13,1.84-0.39l0.37,0.49l-0.55,3.54c-0.43,0.28-0.94,0.54-1.54,0.77c-0.59,0.23-1.17,0.39-1.72,0.47 c-1.62,0-2.89-0.39-3.81-1.18c-0.92-0.79-1.38-1.83-1.38-3.14l0.18-3.41l-0.03-4.09h-1.91l-0.15-0.33l0.25-3.37h1.82l-0.03-2.78 l5.57-1.57l0.37,0.36l-0.15,4h3.01l0.15,0.33l-0.25,3.37h-3.04l-0.19,5.54c0,0.52,0.09,0.89,0.26,1.1S90.97,48.12,91.42,48.12 L91.42,48.12z M108.13,46.35l-7.63,0.07c0.18,0.77,0.53,1.33,1.05,1.69c0.51,0.36,1.22,0.54,2.12,0.54c1,0,2.47-0.27,4.4-0.82 l0.43,0.33l-0.92,4.32c-1.62,0.46-3.13,0.69-4.52,0.69c-2.54,0-4.53-0.72-5.95-2.16c-1.42-1.44-2.14-3.43-2.14-5.96 c0-2.51,0.68-4.49,2.03-5.93c1.35-1.44,3.21-2.16,5.57-2.16c2.03,0,3.6,0.57,4.72,1.7s1.68,2.72,1.68,4.75 c0,0.65-0.06,1.36-0.18,2.13L108.13,46.35L108.13,46.35z M103.88,42.75c0-1.16-0.46-1.74-1.38-1.74c-1.13,0-1.81,0.78-2.06,2.33 l3.38-0.13L103.88,42.75L103.88,42.75z"/><path class="st2" d="M23.52,31.45c2.93,0,5.18,0.85,6.75,2.54c1.57,1.69,2.35,4.13,2.35,7.32c0,3.78-0.91,6.68-2.74,8.71 c-1.83,2.03-4.44,3.05-7.84,3.05c-2.13,0-4.63-0.1-7.5-0.3l0.31-6.22l-0.31-14.97L23.52,31.45L23.52,31.45z M23.21,48.19 c0.96,0,1.7-0.41,2.2-1.23c0.5-0.82,0.75-2.17,0.75-4.04c0-1.59-0.1-2.85-0.31-3.77c-0.21-0.92-0.53-1.58-0.98-1.98 c-0.45-0.4-1.08-0.61-1.88-0.61c-0.78,0-1.55,0.04-2.31,0.13l-0.22,9.2l0.06,2.03C21.76,48.1,22.66,48.19,23.21,48.19L23.21,48.19z M41.36,36.92c2.3,0,4.03,0.65,5.2,1.97c1.17,1.31,1.75,3.24,1.75,5.8c0,2.79-0.63,4.91-1.89,6.34c-1.26,1.43-3.12,2.15-5.58,2.15 c-2.3,0-4.03-0.65-5.2-1.95c-1.17-1.3-1.75-3.22-1.75-5.75c0-2.82,0.63-4.95,1.89-6.39C37.04,37.64,38.9,36.92,41.36,36.92 L41.36,36.92z M40.93,41.21c-0.41,0-0.72,0.08-0.92,0.25c-0.21,0.16-0.34,0.46-0.42,0.9c-0.07,0.44-0.11,1.1-0.11,2 c0,1.33,0.05,2.32,0.14,2.96c0.09,0.64,0.26,1.09,0.51,1.34c0.25,0.25,0.63,0.38,1.14,0.38c0.41,0,0.71-0.08,0.91-0.25 c0.19-0.17,0.33-0.47,0.4-0.92c0.07-0.45,0.11-1.12,0.11-2.01c0-1.31-0.05-2.29-0.14-2.93c-0.09-0.64-0.26-1.09-0.51-1.34 C41.79,41.34,41.42,41.21,40.93,41.21L40.93,41.21z M58.93,52.77l0.31-8.65c0-1.33-0.48-2-1.45-2c-0.47,0-0.95,0.15-1.44,0.46v3.31 l0.25,6.88h-6l0.28-6.22l-0.21-8.88l5.69-0.43v2.29h0.21c1.07-1.14,2.27-1.94,3.6-2.42c1.54,0,2.71,0.37,3.52,1.11 c0.81,0.74,1.19,1.81,1.15,3.21l-0.12,4.45l0.21,6.88H58.93L58.93,52.77z M74.65,36.92c1.89,0,3.34,0.41,4.37,1.23 c1.02,0.82,1.54,1.99,1.54,3.52c0,0.44-0.04,1.59-0.12,3.47c-0.08,1.66-0.12,2.59-0.12,2.78c0,0.24,0.04,0.42,0.11,0.52 s0.18,0.16,0.32,0.16c0.14,0,0.32-0.03,0.52-0.1l0.37,0.33l-0.52,3.28c-0.76,0.57-1.71,0.89-2.86,0.98 c-0.59-0.04-1.12-0.26-1.58-0.66c-0.46-0.39-0.81-0.95-1.06-1.67h-0.21c-0.9,1.11-1.93,1.9-3.08,2.36 c-1.56-0.02-2.8-0.49-3.74-1.39c-0.93-0.91-1.4-2.15-1.4-3.72c0-2.42,1.18-3.81,3.54-4.16l4.37-0.62v-0.39 c0-0.57-0.11-0.97-0.32-1.21c-0.22-0.24-0.59-0.36-1.12-0.36c-1.15,0-2.63,0.52-4.46,1.57l-0.37-0.26l-0.65-4.03 c0.94-0.52,1.98-0.93,3.12-1.21C72.42,37.06,73.54,36.92,74.65,36.92L74.65,36.92z M73.33,46.29c-0.29,0.04-0.5,0.16-0.63,0.34 c-0.13,0.19-0.2,0.46-0.2,0.83c0,0.87,0.38,1.31,1.14,1.31c0.49,0,0.97-0.18,1.45-0.52v-2.23L73.33,46.29L73.33,46.29z M91.42,48.12c0.53,0,1.15-0.13,1.84-0.39l0.37,0.49l-0.55,3.54c-0.43,0.28-0.94,0.54-1.54,0.77c-0.59,0.23-1.17,0.39-1.72,0.47 c-1.62,0-2.89-0.39-3.81-1.18c-0.92-0.79-1.38-1.83-1.38-3.14l0.18-3.41l-0.03-4.09h-1.91l-0.15-0.33l0.25-3.37h1.82l-0.03-2.78 l5.57-1.57l0.37,0.36l-0.15,4h3.01l0.15,0.33l-0.25,3.37h-3.04l-0.19,5.54c0,0.52,0.09,0.89,0.26,1.1S90.97,48.12,91.42,48.12 L91.42,48.12z M108.13,46.35l-7.63,0.07c0.18,0.77,0.53,1.33,1.05,1.69c0.51,0.36,1.22,0.54,2.12,0.54c1,0,2.47-0.27,4.4-0.82 l0.43,0.33l-0.92,4.32c-1.62,0.46-3.13,0.69-4.52,0.69c-2.54,0-4.53-0.72-5.95-2.16c-1.42-1.44-2.14-3.43-2.14-5.96 c0-2.51,0.68-4.49,2.03-5.93c1.35-1.44,3.21-2.16,5.57-2.16c2.03,0,3.6,0.57,4.72,1.7s1.68,2.72,1.68,4.75 c0,0.65-0.06,1.36-0.18,2.13L108.13,46.35L108.13,46.35z M103.88,42.75c0-1.16-0.46-1.74-1.38-1.74c-1.13,0-1.81,0.78-2.06,2.33 l3.38-0.13L103.88,42.75L103.88,42.75z"/><path class="st1" d="M44.36,76.3c0.12,0.07,0.25,0.16,0.36,0.28l1.67,1.67c0.09,0.09,0.17,0.2,0.25,0.31 c1.87,2.56,1.58,4.85,0.31,6.94c0.23,0.09,0.45,0.21,0.63,0.39l1.67,1.67c0.09,0.09,0.17,0.2,0.25,0.31c2.01,2.77,1.51,5.19,0,7.39 c0.07,0.04,0.12,0.1,0.2,0.17l1.67,1.67c0.09,0.09,0.17,0.2,0.25,0.31c3.87,5.29-0.74,9.78-4.44,13.4l-0.95,0.96l-4.13,4.33 l-0.13,0.12c-3.78,3.43-7.53,4.35-11.86,5.41c-0.73,0.17-1.46,0.36-2.48,0.63c-0.03,0-0.04,0.01-0.07,0.01 c-2.35,0.64-4.47,0.79-6.38,0.45c-1.94-0.35-3.62-1.22-5.03-2.59L1.69,105.67c-1.46-1.41-1.96-3.14-1.54-5.2 c0.31-1.65,1.27-3.48,2.78-5.44l3.86-21.82v-0.09c0.17-1.25,0.57-3.09,1.25-4.87c0.52-1.33,1.22-2.64,2.13-3.69 c1.1-1.25,2.19-2.01,3.26-2.42c1.32-0.5,2.58-0.44,3.69,0.04c1.04,0.44,1.92,1.23,2.59,2.24c0.82,1.22,1.35,2.77,1.49,4.39 c0.12,1.33,0.35,3.53,0.57,5.69l0.17,1.8l16.69-16.7c3.21-3.21,6.67-3.84,9.45-2.93c1.11,0.36,2.1,0.97,2.91,1.79 c0.82,0.82,1.42,1.8,1.79,2.91c0.92,2.77,0.29,6.29-2.86,9.44l-5.53,5.53L44.36,76.3L44.36,76.3L44.36,76.3L44.36,76.3z"/><path class="st2" d="M18.84,79.34c-0.03-0.09-0.06-0.2-0.07-0.31c-0.16-1.38-0.31-2.9-0.45-4.21c-0.19-1.92-0.4-4.15-0.55-5.7 c-0.1-1.06-0.44-2.06-0.93-2.81c-0.33-0.48-0.69-0.84-1.1-1.01c-0.33-0.13-0.73-0.15-1.14,0.01c-0.57,0.22-1.2,0.68-1.91,1.48 c-0.63,0.71-1.11,1.67-1.52,2.68c-0.58,1.48-0.92,3.05-1.06,4.13c-0.02,0.07-0.02,0.13-0.04,0.19L6.14,96.04 c-0.06,0.29-0.17,0.55-0.35,0.76c-1.32,1.7-2.15,3.16-2.39,4.34c-0.17,0.87,0,1.57,0.58,2.11l14.43,14.43 c0.92,0.88,1.98,1.44,3.26,1.67c1.39,0.26,3.02,0.12,4.88-0.39c0.03,0,0.07-0.01,0.1-0.01c0.71-0.19,1.63-0.42,2.52-0.64 c3.87-0.94,7.24-1.77,10.37-4.61l4.02-4.2c0.04-0.07,0.1-0.13,0.16-0.19c0.06-0.06,0.45-0.45,0.98-0.96 c2.75-2.69,6.16-6.01,4.09-8.92l-1.61-1.61c-0.78,0.76-1.61,1.49-2.4,2.2c-0.73,0.64-1.41,1.23-2.03,1.86 c-0.66,0.66-1.73,0.66-2.4,0c-0.66-0.67-0.66-1.73,0-2.4c0.63-0.63,1.39-1.3,2.19-2.01c2.73-2.4,5.85-5.15,4.18-7.56l-1.6-1.6 c-0.09-0.09-0.16-0.19-0.23-0.29c-0.92,0.94-1.92,1.84-2.91,2.71c-0.73,0.64-1.41,1.23-2.03,1.86c-0.66,0.66-1.73,0.66-2.4,0 c-0.67-0.66-0.66-1.73,0-2.41c0.63-0.63,1.39-1.3,2.19-2.01c2.73-2.4,5.85-5.15,4.17-7.56L42.3,79c-0.12-0.12-0.2-0.23-0.28-0.36 l-4.68,4.68c-0.66,0.66-1.73,0.66-2.4,0c-0.67-0.66-0.66-1.73,0-2.4l12.55-12.57c2.1-2.1,2.58-4.29,2.03-5.94 c-0.2-0.61-0.54-1.15-0.95-1.56c-0.42-0.42-0.95-0.75-1.56-0.95c-1.63-0.54-3.81-0.04-5.97,2.11l-22,22c-0.66,0.66-1.73,0.66-2.4,0 c-0.67-0.66-0.66-1.73,0-2.4l2.24-2.24L18.84,79.34L18.84,79.34L18.84,79.34L18.84,79.34z"/></g></svg>